<svg width="82" height="88" viewBox="0 0 82 88" fill="none" xmlns="http://www.w3.org/2000/svg">
<path fill-rule="evenodd" clip-rule="evenodd" d="M46.724 0.0112875C39.9685 0.237928 34.0359 3.82276 31.0364 9.98004C23.9665 9.24135 18.1472 12.4371 15.2552 17.3238C13.0681 20.9799 13.1271 26.5693 13.5364 30.23C11.0167 31.6338 10.5027 41.2188 14.224 43.1675C15.2576 45.9993 16.413 48.6789 18.2552 51.0425L17.849 58.105C12.654 61.9767 2.91012 64.1257 1.16142 69.98C-0.224506 74.9797 -0.553183 78.6574 1.19271 81.48C2.94141 84.307 6.3101 85.5391 11.0364 86.48C21.9135 87.7998 32.2772 88.0796 41.724 87.98C51.2514 87.7247 59.6337 87.3966 66.974 86.4487C71.5621 85.7589 77.3873 84.9799 80.1927 82.1362C83.0488 78.1903 81.8342 73.0976 81.1302 69.1987C80.0074 62.8365 66.1162 58.9634 59.4114 54.0113L59.1302 46.6988C62.0639 43.8868 64.36 40.969 65.474 37.5425C68.3289 36.4541 68.5436 24.6872 66.0052 23.4488C68.8486 10.01 61.2616 0.000877531 48.0677 0.0112875C47.6107 -0.00371247 47.1743 -0.00381247 46.724 0.0112875ZM28.6927 13.1363C29.2629 13.1509 29.8079 13.2299 30.349 13.3238C29.8898 16.484 29.8203 19.7412 30.099 22.7613C27.1258 24.0748 26.6279 35.1022 30.7864 37.0738C31.9887 40.3106 33.2919 43.3811 35.4114 46.0425L34.9427 54.23C33.6141 55.1833 31.9719 56.1212 30.1927 57.0425C28.4135 57.9639 26.5307 58.8507 24.724 59.7925C22.7772 60.8075 20.9404 61.8542 19.4114 63.0738C12.6171 67.9344 11.9384 81.2831 21.3802 84.3862C18.0205 84.1308 14.7761 83.6963 11.6614 83.1675C7.2163 82.2826 4.9579 81.2196 4.03639 79.73C3.11503 78.2405 3.07169 75.5681 4.3802 70.855C8.3998 65.4362 15.4835 64.1808 20.5052 60.2925C20.8669 60.0051 21.127 59.5656 21.1614 59.105L21.6302 50.605C21.6594 50.1788 21.5287 49.7146 21.2552 49.3863C19.3718 47.1481 18.18 44.3702 17.0052 41.0425C16.7892 40.4269 16.1875 39.9624 15.5364 39.9175C14.209 38.7436 14.3498 34.9322 15.5052 33.1363C16.4655 33.0934 17.28 32.0801 17.099 31.1363C16.8188 26.9834 16.3372 22.4517 18.0677 19.1988C20.195 14.9231 24.701 13.0341 28.6927 13.1363Z" fill="#273043"/>
</svg>
